<svg width="64" height="64" viewBox="0 0 64 64" fill="none" xmlns="http://www.w3.org/2000/svg">
<rect x="1.5" y="1.5" width="61" height="61" rx="6.5" fill="black" stroke="white" stroke-width="3"/>
<path d="M37.0346 9.59998C39.1142 9.60002 40.8002 11.286 40.8002 13.3656V49.9086C40.8 52.3891 38.7886 54.3998 36.308 54.3998H25.1996C16.5842 54.3996 9.60012 47.4156 9.60001 38.8002V13.5453C9.60001 11.3666 11.3667 9.59998 13.5453 9.59998C15.7238 9.60024 17.4897 11.3668 17.4897 13.5453V40.059C17.4897 44.4163 21.022 47.9486 25.3793 47.9486C29.7366 47.9486 33.269 44.4163 33.269 40.059V13.3656C33.269 11.286 34.9549 9.59998 37.0346 9.59998Z" fill="black"/>
<path d="M37.0346 9.59998C39.1142 9.60002 40.8002 11.286 40.8002 13.3656V49.9086C40.8 52.3891 38.7886 54.3998 36.308 54.3998H25.1996C16.5842 54.3996 9.60012 47.4156 9.60001 38.8002V13.5453C9.60001 11.3666 11.3667 9.59998 13.5453 9.59998C15.7238 9.60024 17.4897 11.3668 17.4897 13.5453V40.059C17.4897 44.4163 21.022 47.9486 25.3793 47.9486C29.7366 47.9486 33.269 44.4163 33.269 40.059V13.3656C33.269 11.286 34.9549 9.59998 37.0346 9.59998Z" stroke="black"/>
<path d="M47.36 13.12C47.36 11.1759 48.9359 9.59998 50.88 9.59998C52.824 9.59998 54.4 11.1759 54.4 13.12V50.88C54.4 52.824 52.824 54.4 50.88 54.4C48.9359 54.4 47.36 52.824 47.36 50.88V13.12Z" fill="black"/>
<path d="M48.7897 9.09998C49.2385 9.10002 49.6765 9.23709 50.0455 9.49255L50.1002 9.53064L50.2858 9.67224C51.1098 10.3679 51.3739 11.531 50.9303 12.514L50.8239 12.7211L50.7545 12.8431C50.5697 13.1666 50.3071 13.4378 49.9918 13.6332L49.8541 13.7123L49.7614 13.7611C48.3166 14.5196 46.5828 13.4719 46.5826 11.8402V11.307C46.5826 10.0882 47.5709 9.09998 48.7897 9.09998Z" fill="#F8EAB9" stroke="black"/>
<path d="M53.1918 9.09998C54.1352 9.10016 54.8998 9.86548 54.8998 10.809V13.0345C54.8998 14.0421 53.9695 14.7686 53.016 14.5668L52.8256 14.514L51.1996 13.9535C50.2318 13.6196 49.8062 12.488 50.3138 11.599L50.5687 11.1527L50.5775 11.1263C50.58 11.1087 50.5766 11.0905 50.5668 11.0756L50.5472 11.056C49.6822 10.4572 50.1056 9.10031 51.1576 9.09998H53.1918Z" fill="#FFB1EF" stroke="black"/>
<path d="M49.6481 12.6987C49.9405 12.582 50.267 12.5743 50.567 12.6792L50.7272 12.7466C51.4368 13.1027 51.6671 14.0178 51.2106 14.6675L51.1022 14.8022L50.1637 15.8286C49.8876 16.1306 49.7802 16.5501 49.8766 16.9478L50.0797 17.7866L50.1041 17.9038C50.1991 18.4561 50.0268 19.0216 49.6403 19.4272L49.5543 19.5112C48.4169 20.5539 46.5826 19.7466 46.5826 18.2036V16.5649C46.5826 15.1727 47.3548 13.8947 48.5875 13.2476L49.525 12.7563L49.6481 12.6987Z" fill="#B1ECFF" stroke="black"/>
<path d="M48.8287 18.827C49.4012 18.3739 50.1791 18.2644 50.859 18.5507L51.0729 18.6405L51.1881 18.6825C51.3043 18.7197 51.4252 18.7416 51.5475 18.7469L52.7242 18.7987L52.819 18.7919C52.8503 18.7865 52.8811 18.7783 52.9108 18.7665L53.0905 18.7079C53.9893 18.4748 54.9 19.1512 54.9 20.1132V20.5565C54.8998 21.404 54.2945 22.1203 53.4772 22.2753L53.3112 22.2987L50.7487 22.536C50.5358 22.5557 50.3211 22.5455 50.1119 22.5048L49.9039 22.454L49.5074 22.3368C48.0058 21.8931 47.5632 19.9798 48.7174 18.9218L48.8287 18.827Z" fill="#F8EAB9" stroke="black"/>
<path d="M46.5826 24.0957C46.5828 22.2653 48.3438 20.9501 50.0992 21.4688L50.3434 21.541L50.4186 21.5557C50.4438 21.5582 50.4694 21.558 50.4948 21.5557L50.6871 21.5508C51.5689 21.5877 52.2022 22.4375 51.986 23.293L51.9264 23.4766L51.4489 24.6709C51.308 25.0229 51.3428 25.421 51.5426 25.7432L51.5797 25.8037L51.6871 25.9941C52.1393 26.9011 51.9515 28.0013 51.2242 28.707L51.0602 28.8516L49.9166 29.7705C49.1822 30.3612 48.1481 30.3714 47.4059 29.8164L47.2614 29.6973C46.8295 29.3086 46.5827 28.7549 46.5826 28.1738V24.0957Z" fill="#FFB1EF" stroke="black"/>
<path d="M53.0695 51.5815C54.0337 51.4819 54.8995 52.2391 54.8995 53.2368C54.8995 54.1553 54.155 54.8999 53.2365 54.8999H52.4298C51.8104 54.8998 51.2798 54.4727 51.1388 53.8804L51.1154 53.7593C51.0664 53.4156 51.1542 53.0665 51.3595 52.7866L51.6974 52.3247L51.798 52.1997C52.0449 51.9199 52.3754 51.7247 52.7423 51.6431L52.8761 51.6128L53.0695 51.5815Z" fill="#F8EAB9" stroke="black"/>
<path d="M53.2125 49.631C54.0752 49.4715 54.8998 50.1332 54.9 51.0392C54.9 51.668 54.4906 52.2181 53.9 52.4044L53.7789 52.4366L53.1364 52.5802C52.8769 52.6379 52.643 52.7759 52.4684 52.9738L52.3971 53.0616L52.1295 53.4279C52.1023 53.465 52.0899 53.5112 52.0963 53.5568L52.108 53.6886C52.1286 54.3423 51.6035 54.8994 50.9323 54.8995H48.028C47.2297 54.8993 46.5827 54.2525 46.5826 53.4542C46.5826 52.9993 46.7969 52.571 47.1608 52.298L48.3844 51.38L48.6686 51.1847C48.9612 51.0017 49.2769 50.8568 49.6071 50.7531L53.0397 49.674L53.2125 49.631Z" fill="#B1ECFF" stroke="black"/>
<path d="M50.0377 40.4382C50.8349 40.2277 51.6896 40.4902 52.2311 41.1248L53.0397 42.073L53.1295 42.1921C53.5107 42.7658 53.3364 43.5493 52.7477 43.907L52.6158 43.9763C52.4921 44.0326 52.448 44.1864 52.5231 44.2996L52.5592 44.3533L52.6412 44.4958C52.7866 44.7899 52.8135 45.1291 52.7155 45.4421L52.6559 45.5955L52.6285 45.6541C52.4011 46.1467 51.9085 46.4626 51.3658 46.4626H49.5621C49.33 46.4626 49.099 46.4351 48.8737 46.3816L48.65 46.3201L47.8248 46.0544C47.0848 45.8166 46.5826 45.1277 46.5826 44.3503C46.5827 43.9219 46.7367 43.508 47.0162 43.1833L48.6832 41.2468L48.7906 41.1296C49.0498 40.8659 49.3669 40.6647 49.7174 40.5427L49.8795 40.4871L50.0377 40.4382Z" fill="#FFB1EF" stroke="black"/>
<path d="M51.1852 38.444C51.8207 38.444 52.4429 38.6296 52.9742 38.9781L53.7838 39.5094L53.9117 39.5992C54.5315 40.0642 54.9 40.796 54.9 41.5768V43.6686C54.9 44.4905 54.0889 45.0433 53.3414 44.7858L53.193 44.7233L52.6129 44.4332C52.0188 44.1362 51.9805 43.3308 52.485 42.9635L51.4752 41.7799C51.2012 41.4587 50.7792 41.3133 50.3727 41.3883L50.1998 41.4342L49.8658 41.5504C49.7788 41.5807 49.6988 41.6281 49.6305 41.6891L49.566 41.7545L48.2819 43.2457C47.7335 43.8826 46.7197 43.5586 46.5953 42.777L46.5826 42.6149L46.5963 42.4537C46.6231 42.2952 46.6892 42.1449 46.7897 42.0172L48.6237 39.6881L48.7428 39.5446C49.3596 38.847 50.2481 38.4441 51.1852 38.444Z" fill="#B1ECFF" stroke="black"/>
<path d="M51.9039 43.2192C52.0795 43.1658 52.2679 43.1713 52.4401 43.2349L52.525 43.272L53.5289 43.7729L53.6823 43.8569C54.4333 44.301 54.9 45.1116 54.9 45.9927C54.8998 47.0955 54.1734 48.0556 53.1334 48.3677L52.9215 48.4214L51.0905 48.8003C50.4839 48.9258 49.8565 48.8994 49.2653 48.7241L49.0143 48.6401L47.5641 48.0962C46.9737 47.8748 46.5826 47.3097 46.5826 46.6792C46.5829 45.6539 47.582 44.926 48.5582 45.2397L49.1119 45.4175L49.2535 45.4517C49.3013 45.4591 49.3496 45.4624 49.3981 45.4624H51.3658C51.5184 45.4623 51.6574 45.3734 51.7213 45.2349L51.7506 45.1704L51.7711 45.106C51.7789 45.0618 51.775 45.0165 51.7604 44.9741L51.7311 44.9136L51.4489 44.4907C51.1572 44.0531 51.3338 43.4578 51.817 43.2505L51.9039 43.2192Z" fill="#F8EAB9" stroke="black"/>
<path d="M53.1569 47.3628C54.0795 47.2802 54.8999 48.0077 54.9 48.9604C54.9 49.6171 54.5006 50.2031 53.9 50.4468L53.777 50.4907L49.5201 51.8286C49.4822 51.8405 49.445 51.8555 49.4098 51.8735L49.3082 51.937C48.1851 52.7791 46.5826 51.9775 46.5826 50.5737V50.0386C46.5828 48.4038 48.2159 47.2722 49.7467 47.8462L49.9274 47.8999C50.1115 47.9407 50.3028 47.9422 50.4889 47.9038L52.9713 47.3901L53.1569 47.3628Z" fill="#FFB1EF" stroke="black"/>
<path d="M46.5826 36.6827C46.5826 34.9168 48.5466 33.8594 50.0211 34.8312L50.1295 34.8947C50.3887 35.0293 50.6895 35.0672 50.9762 34.9982L51.9811 34.756L52.1198 34.7267C53.5565 34.4685 54.8999 35.5732 54.9 37.0558V38.0509C54.9 39.46 53.3835 40.3227 52.1832 39.6495L52.068 39.5802C51.933 39.4916 51.7753 39.4435 51.6139 39.4435H50.4879C50.267 39.4436 50.0567 39.5326 49.903 39.6876L49.8405 39.7579C48.7693 41.1186 46.5827 40.3616 46.5826 38.63V36.6827Z" fill="#C8EDEA" stroke="black"/>
<path d="M49.3131 28.9951C50.2487 28.4162 51.5122 28.8064 51.9371 29.8594L52.6598 31.6484L52.7467 31.8926C52.9011 32.3854 52.9356 32.9081 52.8473 33.417L52.7926 33.6699L52.566 34.5518C52.3957 35.2141 51.8983 35.7396 51.2535 35.9482L51.1237 35.9854C50.6513 36.1034 50.1542 36.0433 49.7262 35.8213L49.5475 35.7168L47.5553 34.4033C46.9482 34.0031 46.5826 33.3248 46.5826 32.5977V30.3223C46.5826 29.3272 47.761 28.8022 48.5006 29.4678L48.5455 29.4961C48.5941 29.5153 48.6511 29.5078 48.694 29.4736L49.1305 29.124L49.3131 28.9951Z" fill="#F8EAB9" stroke="black"/>
<path d="M53.025 21.3336C54.0516 21.3477 54.9 22.186 54.9 23.2379V33.8434C54.8999 34.525 54.4601 35.1226 53.8219 35.3317L53.692 35.3678C52.5457 35.6375 51.5228 34.5933 51.816 33.4528L51.9371 32.9811L51.9606 32.8453C51.9689 32.7548 51.9632 32.6635 51.943 32.5748L51.902 32.444L50.6149 29.2545C50.3766 28.6641 50.5515 27.9871 51.0455 27.5856L51.1051 27.527C51.212 27.4011 51.2413 27.2258 51.1813 27.0719L51.1442 26.9977L50.7321 26.3336C50.3401 25.7021 50.2714 24.9212 50.5475 24.2311L51.2281 22.5309L51.2819 22.4088C51.5705 21.8119 52.1515 21.4049 52.818 21.3424L53.025 21.3336Z" fill="#B1ECFF" stroke="black"/>
<path d="M50.3657 14.1365C51.0874 13.4555 52.1325 13.2239 53.0815 13.5486L53.2807 13.6257C54.2574 14.0488 54.8997 15.0147 54.8999 16.0925V17.489C54.8998 18.3717 54.396 19.1708 53.6128 19.5554L53.4526 19.6267C53.2252 19.7177 52.9851 19.7716 52.7417 19.7869L52.4975 19.7898L51.5708 19.7488C51.3262 19.7381 51.0845 19.6953 50.852 19.6208L50.6235 19.5359C49.8694 19.2184 49.2979 18.5834 49.06 17.8064L49.0171 17.6492L48.9936 17.5535C48.7628 16.6009 49.0217 15.5962 49.6831 14.8728L50.226 14.2781L50.3657 14.1365Z" fill="white" stroke="black"/>
<path d="M50.3657 14.1365C51.0874 13.4555 52.1325 13.2239 53.0815 13.5486L53.2807 13.6257C54.2574 14.0488 54.8997 15.0147 54.8999 16.0925V17.489C54.8998 18.3717 54.396 19.1708 53.6128 19.5554L53.4526 19.6267C53.2252 19.7177 52.9851 19.7716 52.7417 19.7869L52.4975 19.7898L51.5708 19.7488C51.3262 19.7381 51.0845 19.6953 50.852 19.6208L50.6235 19.5359C49.8694 19.2184 49.2979 18.5834 49.06 17.8064L49.0171 17.6492L48.9936 17.5535C48.7628 16.6009 49.0217 15.5962 49.6831 14.8728L50.226 14.2781L50.3657 14.1365Z" fill="#C8EDEA" stroke="black"/>
<path d="M12.4238 9.09998C13.2878 9.09998 14.1004 9.51166 14.6113 10.2084L14.9707 10.6986L15.0889 10.8783C15.5935 11.7367 15.424 12.8374 14.6846 13.5043L14.5176 13.64L13.4307 14.4379C13.0827 14.693 12.6095 14.644 12.3193 14.35L11.8105 14.9095C10.8523 15.9603 9.10254 15.2819 9.10254 13.8597V12.2162C9.1027 10.4952 10.4978 9.10014 12.2188 9.09998H12.4238Z" fill="#B1ECFF" stroke="black"/>
<path d="M16.161 9.09998C17.1694 9.09998 17.9872 9.91774 17.9872 10.9261V17.6918C17.9872 17.9698 17.9121 18.2418 17.7713 18.4799L17.7069 18.5795C16.8971 19.7363 15.1152 19.288 14.909 17.9369L14.8934 17.8041L14.6766 14.809C14.662 14.6078 14.6711 14.4055 14.703 14.2064L14.9305 12.7836L14.9403 12.6957C14.9508 12.5183 14.9075 12.3419 14.8172 12.1888L14.7684 12.1136L14.6893 12.0052C13.805 10.7993 14.6656 9.1002 16.161 9.09998Z" fill="#FFB1EF" stroke="black"/>
<path d="M15.6561 19.7753C16.4269 18.845 17.987 19.3756 17.9871 20.6268V23.7333C17.9871 24.0788 17.9087 24.419 17.7596 24.7294L17.6922 24.8612L15.9647 27.9315C15.6587 28.4755 15.214 28.9266 14.6785 29.2411L14.4432 29.368C12.4891 30.324 10.1637 29.2948 9.53302 27.2469L9.47736 27.0448L9.43341 26.8661C9.19915 25.9123 9.35718 24.9047 9.87189 24.0682L12.0457 20.5341L12.1541 20.3759C12.7244 19.6163 13.7523 19.3397 14.6356 19.7323L15.1902 19.9784L15.244 19.9969C15.3708 20.0283 15.5067 19.9792 15.5838 19.869L15.6561 19.7753Z" fill="#F8EAB9" stroke="black"/>
<path d="M14.8973 27.7224C15.7915 26.4307 17.8483 26.9799 17.9793 28.5457L17.9852 28.7058V30.9099C17.9851 30.9925 17.9804 31.075 17.9715 31.157L17.9315 31.4021L16.8817 36.1531C16.5525 37.6442 14.5388 37.8331 13.91 36.5017L13.8533 36.3679C13.7128 35.9933 13.2521 35.8743 12.949 36.1121L12.8904 36.1648L12.0965 36.9763C11.0022 38.0944 9.10256 37.32 9.10236 35.7556V30.0212C9.10236 28.778 10.8791 28.563 11.1756 29.7703L11.1863 29.7917C11.2012 29.8093 11.2275 29.8156 11.2498 29.8044L14.5233 28.1326L14.6102 28.0808C14.6925 28.0224 14.7617 27.9463 14.8123 27.8582L14.8973 27.7224Z" fill="#C8EDEA" stroke="black"/>
<path d="M12.3168 35.3157C13.152 34.6733 14.4079 35.0037 14.7924 36.0276L15.2719 37.3059L15.3051 37.3635C15.399 37.4759 15.5995 37.443 15.6371 37.2825L15.6713 37.1575C16.0827 35.9193 17.9867 36.1818 17.9867 37.553V43.1868C17.9867 44.1914 17.1852 44.9968 16.2045 45.0256L16.0063 45.0208L13.4711 44.8264C13.0578 44.7946 12.7712 45.2295 12.9633 45.5969L13.4184 46.468L13.4926 46.6409C13.7654 47.4477 13.0553 48.2701 12.2172 48.1184L12.0356 48.0706C11.9855 48.0532 11.9315 48.0663 11.8949 48.1008L11.8656 48.1418L11.7641 48.3528C11.1199 49.6971 9.10033 49.2388 9.10001 47.7483V39.8372C9.10011 38.9892 9.43699 38.1761 10.0365 37.5764L12.1557 35.4573L12.3168 35.3157Z" fill="#B1ECFF" stroke="black"/>
<path d="M13.5506 43.8292L15.9363 44.0128L16.1502 44.0402C17.2018 44.2239 17.9871 45.1396 17.9871 46.2277V47.2716C17.9873 47.3695 18.0669 47.4493 18.1649 47.4493C19.3722 47.4494 19.7781 49.0283 18.7859 49.6281L18.6854 49.6827L16.3651 50.8273C15.9295 51.042 15.8581 51.6336 16.2303 51.9454L16.3367 52.0421C17.3831 53.0682 16.6705 54.9005 15.157 54.9005H11.7928C10.3071 54.9005 9.10254 53.6957 9.10236 52.2101C9.10236 51.8077 9.19215 51.4099 9.36603 51.047L10.9656 47.7101L11.0164 47.6154C11.2908 47.1577 11.8529 46.9478 12.366 47.1261L12.41 47.1349C12.4949 47.1367 12.5628 47.0575 12.5486 46.9738L12.534 46.9318L12.0789 46.0607C11.5231 44.9973 12.3542 43.7372 13.5506 43.8292Z" fill="#F8EAB9" stroke="black"/>
<path d="M13.5652 13.1045C14.5411 12.4959 15.8147 13.2397 15.7635 14.3887L15.7537 14.5049C15.7506 14.5307 15.7493 14.557 15.7508 14.583L16.0047 18.958L16.0027 19.1709C15.9294 20.1458 14.9633 20.8147 14.0252 20.54L13.824 20.4658C13.6031 20.3679 13.3486 20.426 13.1912 20.5996L13.1297 20.6816L12.9012 21.0527C11.8171 22.8144 9.10236 22.0461 9.10236 19.9775V17.4658L9.11407 17.209C9.16957 16.6137 9.41722 16.0498 9.82306 15.6045L11.6971 13.5498L11.7713 13.4766C12.1199 13.1756 12.6456 13.2115 12.9529 13.5459L13.4686 13.1699L13.5652 13.1045Z" fill="#C8EDEA" stroke="black"/>
<path d="M19.7113 48.0669C20.6436 47.7342 21.6909 48.2265 22.0121 49.1899L22.0716 49.3257C22.1441 49.4553 22.252 49.5632 22.3841 49.6353L24.2874 50.6733L24.4886 50.7964C25.3869 51.4148 25.7112 52.5968 25.2552 53.5874L25.1458 53.7964C24.7405 54.4804 24.0044 54.8999 23.2093 54.8999H19.3304C18.6934 54.8999 18.0736 54.7071 17.5511 54.3501L17.3333 54.187C15.5525 52.7298 15.8814 49.9174 17.9505 48.9106L19.5267 48.144L19.7113 48.0669Z" fill="#FFB1EF" stroke="black"/>
<path d="M27.3263 47.4487C28.5734 47.4489 29.1886 48.9349 28.3614 49.8169L28.2765 49.8999C28.1833 49.985 28.1349 50.109 28.1446 50.2349L28.2618 51.7642L28.2774 51.8657C28.2999 51.966 28.3437 52.0607 28.4063 52.1431L28.4825 52.2505C29.2149 53.3739 28.4149 54.8996 27.0392 54.8999H25.9757C24.8076 54.8999 24.0833 53.6284 24.6788 52.6235L24.7227 52.5288C24.7897 52.3327 24.7292 52.1134 24.5714 51.979L24.4845 51.9194L21.8175 50.4653C21.5236 50.305 21.2882 50.0571 21.1427 49.7583L21.086 49.6265C20.6856 48.5752 21.4621 47.4487 22.587 47.4487H27.3263Z" fill="#B1ECFF" stroke="black"/>
<path d="M34.0038 43.2959C34.5012 43.0865 35.0653 43.0822 35.5702 43.29L36.9237 43.8477L37.0682 43.9131C37.776 44.2595 38.2774 44.9274 38.4081 45.7109L39.1034 49.8838L39.1132 49.9141C39.1166 49.9205 39.1202 49.9242 39.1229 49.9268C39.1313 49.9345 39.1464 49.9432 39.1669 49.9463C39.1875 49.9494 39.2045 49.9454 39.2147 49.9404C39.2216 49.9371 39.2336 49.93 39.246 49.9053L39.2958 49.8145C39.8468 48.9135 41.2831 49.2872 41.2831 50.3867V53.168C41.283 54.1245 40.5072 54.9004 39.5507 54.9004H36.1239C34.6792 54.9004 33.5068 53.744 33.4764 52.3066L33.2577 50.4121C33.2465 50.3149 33.2041 50.2246 33.1376 50.1553L33.0634 50.0938L32.0731 49.4326C31.1815 48.8382 31.6021 47.4492 32.6737 47.4492C32.7196 47.4492 32.7567 47.4111 32.7567 47.3652V45.1748C32.7567 44.4387 33.1542 43.7593 33.7958 43.3984L34.0038 43.2959Z" fill="#F8EAB9" stroke="black"/>
<path d="M34.87 39.5513C35.8499 39.1443 36.9966 39.4711 37.6103 40.3599L38.6308 41.8384L38.6698 41.8804C38.7695 41.9637 38.9287 41.9379 38.9911 41.813L39.0478 41.7104C39.6677 40.6972 41.2831 41.1172 41.2831 42.354V47.6489C41.2831 47.9238 41.2195 48.1951 41.0966 48.4409C40.3536 49.9268 38.1884 49.651 37.7978 48.0942L37.7655 47.9399L37.4218 45.8755C37.3496 45.4425 37.0864 45.0686 36.7108 44.854L36.5429 44.772L34.8358 44.0698C34.7828 44.048 34.7247 44.0452 34.6708 44.061L34.619 44.0825C33.7862 44.551 32.7567 43.9493 32.7567 42.9937V41.8237C32.7567 41.1074 33.1529 40.4489 33.786 40.1138L34.6767 39.6421L34.87 39.5513Z" fill="#B1ECFF" stroke="black"/>
<path d="M36.8144 31.1906C37.845 30.1247 39.5747 30.1326 40.5937 31.2365L40.7499 31.424C41.0941 31.8753 41.2831 32.429 41.2831 33.0011V38.8322C41.2831 39.2486 41.1862 39.6598 40.9999 40.0323L40.6894 40.6534C39.9405 42.1507 37.9022 42.3391 36.8827 41.0568L36.787 40.9279L36.5741 40.6202C36.3595 40.3096 35.9713 40.182 35.622 40.2902L35.4745 40.3517C34.2413 41.0041 32.7568 40.1102 32.7567 38.715V35.3156C32.7567 34.4266 33.7832 33.9309 34.4794 34.4835L35.0907 34.9689L35.1464 35.006C35.4301 35.1705 35.8033 34.9694 35.8036 34.6251V33.1534C35.8036 32.6363 35.9894 32.1361 36.328 31.7452L36.7167 31.297L36.8144 31.1906Z" fill="#FFB1EF" stroke="black"/>
<path d="M39.5556 9.09998C40.5095 9.09998 41.2831 9.87358 41.2831 10.8275C41.283 11.4308 40.9683 11.9868 40.4589 12.2992L40.3544 12.3588L39.4618 12.8246C38.5346 13.3085 38.3808 14.572 39.1649 15.264L39.3612 15.4369L39.4618 15.5316C39.9126 15.9868 40.124 16.6281 40.0321 17.2621L40.0077 17.3978C39.6729 18.9588 37.7732 19.5335 36.6288 18.476L36.5204 18.3685L36.4013 18.2416C36.1676 17.9931 35.8301 17.8768 35.498 17.9222L35.3564 17.9515C34.0514 18.3185 32.7567 17.3374 32.7567 15.9818V12.3773C32.7569 10.5674 34.2241 9.10011 36.0341 9.09998H39.5556Z" fill="#C8EDEA" stroke="black"/>
<path d="M38.4872 12.2097C39.7894 11.6368 41.2831 12.5879 41.2831 14.0408V23.2498C41.2831 23.734 41.1454 24.2067 40.8886 24.614L40.7714 24.7849C39.8475 26.0166 38.0636 26.1522 36.9638 25.1062L36.8603 25.0017L36.1308 24.2253C35.8612 23.9384 35.6689 23.5883 35.5712 23.2087L35.5351 23.0447C35.3404 21.9738 35.9116 20.91 36.912 20.4812L37.4706 20.2419L37.5858 20.1882C38.1513 19.9041 38.5607 19.3779 38.6942 18.7546L38.9745 17.4441L39.0038 17.2458C39.0344 16.8494 38.9047 16.4566 38.6444 16.156L38.5038 16.0134L37.9648 15.5378C36.9142 14.6107 37.12 12.9185 38.3622 12.2703L38.4872 12.2097Z" fill="#F8EAB9" stroke="black"/>
<path d="M34.9931 17.0208C35.8382 16.8454 36.7196 17.1201 37.3163 17.7551L37.7665 18.2346L37.8534 18.3323C38.6827 19.333 38.3646 20.8545 37.204 21.4397L37.0858 21.4954C36.6431 21.6851 36.3905 22.1553 36.4765 22.6292L36.6122 23.3792L36.9696 24.9895L37.0126 25.2258C37.0806 25.6995 37.0398 26.1823 36.8935 26.6379L36.8124 26.8635L36.5058 27.6145C36.2071 28.3473 35.4944 28.8264 34.703 28.8264C33.6282 28.8263 32.7569 27.955 32.7567 26.8801V19.676L32.7655 19.4524C32.8577 18.3449 33.629 17.3981 34.7138 17.093L34.8241 17.0618L34.9931 17.0208Z" fill="#FFB1EF" stroke="black"/>
<path d="M36.1308 25.8248C35.8824 24.707 37.2676 23.9746 38.0517 24.8092L38.6562 25.4528L38.6991 25.4899C38.8059 25.5614 38.9551 25.5402 39.036 25.4323L39.1054 25.3463C39.8494 24.5046 41.2831 25.019 41.2831 26.1813V29.9733C41.2829 31.1748 39.854 31.7709 38.9999 30.9781L38.9198 30.8971C38.7914 30.758 38.5816 30.7438 38.4364 30.8522L38.3788 30.9059L37.0839 32.4C36.9028 32.609 36.8036 32.8764 36.8036 33.153V33.4147C36.8036 35.0549 34.9675 35.9929 33.6474 35.0924L33.5214 34.9996C33.0381 34.6158 32.7567 34.0318 32.7567 33.4147V29.7731L32.7665 29.5739C32.8662 28.5924 33.6953 27.8269 34.703 27.8268C35.0879 27.8268 35.4348 27.5933 35.58 27.2369L36.1249 25.9L36.1337 25.8629L36.1308 25.8248Z" fill="#C8EDEA" stroke="black"/>
<path d="M34.4733 52.2495C34.4733 53.7133 33.2867 54.8999 31.8229 54.8999H30.9791C29.9552 54.8999 28.9864 54.4509 28.3248 53.6782L28.1969 53.52L27.9254 53.1626C27.5704 52.6954 27.34 52.1474 27.2535 51.5698L27.2252 51.3208C27.143 50.2509 27.5578 49.2026 28.3502 48.479L28.858 48.0151L29.0133 47.8862C29.388 47.6033 29.8468 47.4487 30.3199 47.4487C30.7583 47.4488 31.1862 47.5822 31.5475 47.8306L32.4889 48.4771L32.6852 48.6206C33.6455 49.3601 34.27 50.4586 34.4098 51.6694L34.4703 52.1919L34.4733 52.2212V52.2495Z" fill="#C8EDEA" stroke="black"/>
</svg>
